<svg xmlns="http://www.w3.org/2000/svg" viewBox="0 0 128 128">
  <defs>
    <!-- 渐变背景 -->
    <linearGradient id="bgGradient" x1="0%" y1="0%" x2="100%" y2="100%">
      <stop offset="0%" stop-color="#667eea" />
      <stop offset="100%" stop-color="#764ba2" />
    </linearGradient>
    
    <!-- 色块渐变 -->
    <linearGradient id="color1" x1="0%" y1="0%" x2="100%" y2="100%">
      <stop offset="0%" stop-color="#f093fb" />
      <stop offset="100%" stop-color="#f5576c" />
    </linearGradient>
    
    <linearGradient id="color2" x1="0%" y1="0%" x2="100%" y2="100%">
      <stop offset="0%" stop-color="#4facfe" />
      <stop offset="100%" stop-color="#00f2fe" />
    </linearGradient>
    
    <linearGradient id="color3" x1="0%" y1="0%" x2="100%" y2="100%">
      <stop offset="0%" stop-color="#43e97b" />
      <stop offset="100%" stop-color="#38f9d7" />
    </linearGradient>
    
    <linearGradient id="color4" x1="0%" y1="0%" x2="100%" y2="100%">
      <stop offset="0%" stop-color="#fa709a" />
      <stop offset="100%" stop-color="#fee140" />
    </linearGradient>
  </defs>
  
  <!-- 白色圆角背景 -->
  <rect x="0" y="0" width="128" height="128" rx="30" fill="white"/>
  
  <!-- 色块网格 - 3x3 大色块居中 -->
  <g transform="translate(16, 16)">
    <!-- 第一行 -->
    <rect x="0" y="0" width="30" height="30" rx="6" fill="url(#color1)"/>
    <rect x="33" y="0" width="30" height="30" rx="6" fill="url(#color2)"/>
    <rect x="66" y="0" width="30" height="30" rx="6" fill="url(#color3)"/>
    
    <!-- 第二行 -->
    <rect x="0" y="33" width="30" height="30" rx="6" fill="url(#color2)"/>
    <rect x="33" y="33" width="30" height="30" rx="6" fill="url(#color4)"/>
    <rect x="66" y="33" width="30" height="30" rx="6" fill="url(#color1)"/>
    
    <!-- 第三行 -->
    <rect x="0" y="66" width="30" height="30" rx="6" fill="url(#color3)"/>
    <rect x="33" y="66" width="30" height="30" rx="6" fill="url(#color1)"/>
    <rect x="66" y="66" width="30" height="30" rx="6" fill="url(#color4)"/>
  </g>
</svg>