<svg xmlns="http://www.w3.org/2000/svg" viewBox="0 0 128 128">
  <defs>
    <!-- 渐变背景 -->
    <linearGradient id="bgGradient" x1="0%" y1="0%" x2="100%" y2="100%">
      <stop offset="0%" stop-color="#667eea" />
      <stop offset="100%" stop-color="#764ba2" />
    </linearGradient>
    
    <!-- 色块渐变 -->
    <linearGradient id="color1" x1="0%" y1="0%" x2="100%" y2="100%">
      <stop offset="0%" stop-color="#f093fb" />
      <stop offset="100%" stop-color="#f5576c" />
    </linearGradient>
    
    <linearGradient id="color2" x1="0%" y1="0%" x2="100%" y2="100%">
      <stop offset="0%" stop-color="#4facfe" />
      <stop offset="100%" stop-color="#00f2fe" />
    </linearGradient>
    
    <linearGradient id="color3" x1="0%" y1="0%" x2="100%" y2="100%">
      <stop offset="0%" stop-color="#43e97b" />
      <stop offset="100%" stop-color="#38f9d7" />
    </linearGradient>
    
    <linearGradient id="color4" x1="0%" y1="0%" x2="100%" y2="100%">
      <stop offset="0%" stop-color="#fa709a" />
      <stop offset="100%" stop-color="#fee140" />
    </linearGradient>
  </defs>
  
  <!-- 圆角矩形背景 -->
  <rect x="4" y="4" width="120" height="120" rx="30" fill="url(#bgGradient)"/>
  
  <!-- 白色内边框 -->
  <rect x="14" y="14" width="100" height="100" rx="22" fill="white" opacity="0.95"/>
  
  <!-- 色块网格 - 更大更居中 -->
  <g transform="translate(26, 26)">
    <!-- 第一行 -->
    <rect x="0" y="0" width="18" height="18" rx="4" fill="url(#color1)"/>
    <rect x="21" y="0" width="18" height="18" rx="4" fill="url(#color2)"/>
    <rect x="42" y="0" width="18" height="18" rx="4" fill="url(#color3)"/>
    <rect x="63" y="0" width="18" height="18" rx="4" fill="url(#color4)"/>
    
    <!-- 第二行 -->
    <rect x="0" y="21" width="18" height="18" rx="4" fill="url(#color2)"/>
    <rect x="21" y="21" width="18" height="18" rx="4" fill="url(#color4)"/>
    <rect x="42" y="21" width="18" height="18" rx="4" fill="url(#color1)"/>
    <rect x="63" y="21" width="18" height="18" rx="4" fill="url(#color3)"/>
    
    <!-- 第三行 -->
    <rect x="0" y="42" width="18" height="18" rx="4" fill="url(#color3)"/>
    <rect x="21" y="42" width="18" height="18" rx="4" fill="url(#color1)"/>
    <rect x="42" y="42" width="18" height="18" rx="4" fill="url(#color4)"/>
    <rect x="63" y="42" width="18" height="18" rx="4" fill="url(#color2)"/>
    
    <!-- 第四行 -->
    <rect x="0" y="63" width="18" height="18" rx="4" fill="url(#color4)"/>
    <rect x="21" y="63" width="18" height="18" rx="4" fill="url(#color3)"/>
    <rect x="42" y="63" width="18" height="18" rx="4" fill="url(#color2)"/>
    <rect x="63" y="63" width="18" height="18" rx="4" fill="url(#color1)"/>
  </g>
</svg>